# xmcd
#
# Track frame offsets:
#	150
#	20445
#	38074
#	51323
#	72737
#	82891
#	100992
#	116464
#	137912
#	151795
#	167236
#	180956
#	198049
#	212401
#
# Disc length: 3108 seconds
#
# Revision: 1
# Processed by: cddbd v1.5.2PL0 Copyright (c) Steve Scherf et al.
# Submitted via: audiograbber 1.83.01
#
DISCID=b30c220e
DTITLE=Various Artist - All Gone Fishin'
DYEAR=2006
DGENRE=Country
TTITLE0=Bobby Bare - Out On The Water
TTITLE1=George Jones - Beer, Bait And Ammo
TTITLE2=Lorrie Morgan - Something Fishy's Going On
TTITLE3=Jerry Reed - Front Of The Boat
TTITLE4=Merle Haggard - Take Him Fishing
TTITLE5=Patty Loveless With Gary Shiebler - Breathin' Room
TTITLE6=Mel Tillis - Three Little Fishes
TTITLE7=Porter Wagoner - White Cap Hell
TTITLE8=Arlo Guthrie - Talking Fishing Blues
TTITLE9=Gary Shielbler With Marcia Ramirez - As Country Could Be
TTITLE10=Little Jimmy Dickens With Brad Paisley On Guitar - The Picture
TTITLE11=Bryan White With Rachel Proctor - Take Me Fishing
TTITLE12=Danny Gilley - Fishin' Man Blues
TTITLE13=Tanya Tucker - Sleepwalking
EXTD=
EXTT0=
EXTT1=
EXTT2=
EXTT3=
EXTT4=
EXTT5=
EXTT6=
EXTT7=
EXTT8=
EXTT9=
EXTT10=
EXTT11=
EXTT12=
EXTT13=
PLAYORDER=
